<svg xmlns="http://www.w3.org/2000/svg" viewBox="0 0 64 64" role="img" aria-label="Agent James"><rect x="5.76" y="21.54" width="8" height="3.008" fill="#1A1712"/><rect x="50.24" y="21.54" width="8" height="3.008" fill="#1A1712"/><rect x="21.54" y="5.76" width="3.008" height="8" fill="#1A1712"/><rect x="21.54" y="50.24" width="3.008" height="8" fill="#1A1712"/><rect x="5.76" y="30.50" width="8" height="3.008" fill="#1A1712"/><rect x="50.24" y="30.50" width="8" height="3.008" fill="#1A1712"/><rect x="30.50" y="5.76" width="3.008" height="8" fill="#1A1712"/><rect x="30.50" y="50.24" width="3.008" height="8" fill="#1A1712"/><rect x="5.76" y="39.46" width="8" height="3.008" fill="#1A1712"/><rect x="50.24" y="39.46" width="8" height="3.008" fill="#1A1712"/><rect x="39.46" y="5.76" width="3.008" height="8" fill="#1A1712"/><rect x="39.46" y="50.24" width="3.008" height="8" fill="#1A1712"/><rect x="14.08" y="14.08" width="35.84" height="35.84" fill="none" stroke="#1A1712" stroke-width="3.008"/><path d="M37.76 20.90 V35.58 a7.88 7.88 0 0 1 -7.88 7.88 H26.27" fill="none" stroke="#1A1712" stroke-width="3.968" stroke-linecap="butt"/><rect x="17.31" y="17.31" width="4.66" height="4.66" fill="#B45309"/></svg>
